<?xml version="1.0" encoding="UTF-8" standalone="no"?>
<!DOCTYPE svg PUBLIC "-//W3C//DTD SVG 1.1//EN" "http://www.w3.org/Graphics/SVG/1.1/DTD/svg11.dtd">
<svg width="100%" height="100%" viewBox="0 0 175 165" version="1.1" xmlns="http://www.w3.org/2000/svg" xmlns:xlink="http://www.w3.org/1999/xlink" xml:space="preserve" xmlns:serif="http://www.serif.com/" style="fill-rule:evenodd;clip-rule:evenodd;stroke-linejoin:round;stroke-miterlimit:2;">
    <g transform="matrix(1,0,0,1,-1519,-211.328)">
        <g id="parsemind-nt" transform="matrix(0.125345,0,0,0.0861049,1328.48,211.328)">
            <rect x="1520" y="0" width="1392" height="1912" style="fill:none;"/>
            <g transform="matrix(60.9885,0,0,88.7823,-29397.7,-23041.8)">
                <path d="M513.92,276.392L511.848,277.428C511.71,277.497 511.548,277.497 511.41,277.428L509.903,276.675C509.208,276.906 508.26,276.868 507.648,276.562C507.141,276.308 506.943,275.932 506.943,275.6C506.943,275.267 507.141,274.891 507.648,274.638C508.346,274.288 509.481,274.288 510.179,274.638C510.686,274.891 510.884,275.267 510.884,275.6C510.884,275.735 510.851,275.877 510.778,276.015L511.629,276.441L512.823,275.844L509.514,274.19C509.348,274.106 509.243,273.937 509.243,273.751C509.243,273.751 509.243,269.562 509.243,269.558L509.243,264.332C509.243,264.162 509.332,264.004 509.476,263.915C509.488,263.907 509.501,263.9 509.514,263.894L517.886,259.708C518.025,259.639 518.187,259.639 518.325,259.708L526.697,263.894C526.71,263.9 526.723,263.907 526.736,263.915C526.88,264.004 526.968,264.162 526.968,264.332C526.968,264.332 526.968,270.613 526.968,270.617L526.968,273.751C526.968,273.937 526.863,274.106 526.697,274.19L525.316,274.88L526.697,275.571C526.706,275.575 526.714,275.58 526.722,275.584C527.42,275.339 528.392,275.372 529.016,275.684C529.523,275.938 529.721,276.314 529.721,276.646C529.721,276.979 529.523,277.355 529.016,277.608C528.318,277.958 527.183,277.958 526.484,277.608C525.978,277.355 525.78,276.979 525.78,276.646C525.78,276.519 525.809,276.386 525.873,276.256L524.219,275.429L521.296,276.89L522.903,277.694C523.146,277.815 523.244,278.11 523.123,278.352C523.058,278.481 522.945,278.569 522.817,278.605C522.792,278.624 522.766,278.64 522.737,278.655L521.256,279.395C521.32,279.526 521.349,279.659 521.349,279.786C521.349,280.118 521.151,280.494 520.644,280.748C519.946,281.097 518.811,281.097 518.113,280.748C517.606,280.494 517.408,280.118 517.408,279.786C517.408,279.453 517.606,279.077 518.113,278.824C518.736,278.512 519.708,278.478 520.406,278.724L521.587,278.133L520.199,277.439L518.325,278.376C518.187,278.445 518.024,278.445 517.886,278.376L513.92,276.392ZM526.799,276.646C526.833,276.673 526.88,276.709 526.923,276.731C527.38,276.959 528.121,276.959 528.577,276.731C528.62,276.709 528.668,276.673 528.702,276.646C528.669,276.619 528.622,276.584 528.577,276.562C528.121,276.333 527.38,276.333 526.923,276.562C526.879,276.584 526.832,276.619 526.799,276.646ZM518.427,279.786C518.461,279.813 518.508,279.849 518.551,279.87C519.008,280.098 519.749,280.098 520.206,279.87C520.248,279.849 520.296,279.813 520.33,279.786C520.297,279.758 520.25,279.723 520.206,279.701C519.749,279.473 519.008,279.473 518.551,279.701C518.507,279.723 518.46,279.758 518.427,279.786ZM507.962,275.6C507.996,275.627 508.043,275.663 508.086,275.684C508.543,275.912 509.284,275.912 509.741,275.684C509.784,275.663 509.831,275.627 509.865,275.6C509.832,275.572 509.785,275.537 509.741,275.515C509.284,275.287 508.543,275.287 508.086,275.515C508.042,275.537 507.995,275.572 507.962,275.6ZM510.831,264.332L512.873,265.354L514.916,264.332L514.224,263.986C513.982,263.865 513.883,263.57 514.004,263.328C514.125,263.086 514.42,262.988 514.662,263.109L517.497,264.526C517.739,264.647 517.838,264.942 517.717,265.184C517.596,265.426 517.301,265.525 517.058,265.404L516.013,264.881L513.97,265.902C513.97,265.902 516.234,267.034 516.237,267.036L518.106,267.97C518.106,267.97 522.075,265.985 522.079,265.984L522.241,265.902L521.245,265.404L519.372,266.341C519.13,266.462 518.835,266.364 518.714,266.122C518.592,265.879 518.691,265.584 518.933,265.463L521.026,264.417C521.164,264.348 521.326,264.348 521.465,264.417L523.338,265.354C523.338,265.354 524.168,264.939 524.172,264.937L525.381,264.332L521.245,262.265L519.372,263.201C519.234,263.27 519.071,263.27 518.933,263.201L517.363,262.417C517.121,262.295 517.023,262.001 517.144,261.758C517.265,261.516 517.56,261.418 517.802,261.539L519.152,262.214L520.148,261.716L518.106,260.695C518.106,260.695 510.831,264.332 510.831,264.332ZM510.224,265.126L510.224,269.262L511.336,269.818L511.336,267.472C511.336,267.201 511.556,266.981 511.827,266.981C512.098,266.981 512.317,267.201 512.317,267.472L512.317,272.704C512.317,272.975 512.098,273.195 511.827,273.195C511.556,273.195 511.336,272.975 511.336,272.704L511.336,270.915L510.224,270.359L510.224,273.448L513.429,275.05L513.429,273.751C513.429,273.581 513.517,273.423 513.662,273.334C513.807,273.244 513.987,273.236 514.139,273.312L516.232,274.359C516.474,274.48 516.573,274.775 516.452,275.017C516.33,275.259 516.036,275.357 515.793,275.236L514.41,274.545L514.41,275.541L517.615,277.143L517.615,273.792L516.23,273.1C515.988,272.979 515.89,272.684 516.011,272.442C516.132,272.2 516.427,272.101 516.669,272.222L517.615,272.695L517.615,268.822L516.503,268.266L516.503,270.611C516.503,270.781 516.415,270.939 516.271,271.029C516.126,271.118 515.945,271.126 515.793,271.05L513.7,270.004C513.458,269.883 513.36,269.588 513.481,269.345C513.602,269.103 513.897,269.005 514.139,269.126L515.522,269.818L515.522,267.775L510.224,265.126ZM525.987,265.126L524.875,265.682L524.875,266.678L525.212,266.51C525.454,266.389 525.749,266.487 525.87,266.729C525.991,266.971 525.893,267.266 525.651,267.387L524.604,267.911C524.452,267.987 524.271,267.979 524.127,267.889C523.982,267.8 523.894,267.642 523.894,267.472L523.894,266.173L522.782,266.729L522.782,269.818L524.165,269.126C524.408,269.005 524.702,269.103 524.823,269.345C524.945,269.588 524.846,269.883 524.604,270.004L521.465,271.573C521.222,271.694 520.928,271.596 520.807,271.354C520.685,271.112 520.784,270.817 521.026,270.696L521.801,270.308L521.801,267.219L518.596,268.822C518.596,268.822 518.596,273.492 518.596,273.496L518.596,277.143L519.708,276.587L519.708,273.751C519.708,273.565 519.813,273.395 519.979,273.312L522.072,272.266C522.315,272.144 522.609,272.243 522.731,272.485C522.852,272.727 522.753,273.022 522.511,273.143C522.511,273.143 520.689,274.054 520.689,274.054L520.689,276.097L523.894,274.494L523.894,272.704C523.894,272.434 524.114,272.214 524.385,272.214C524.655,272.214 524.875,272.434 524.875,272.704L524.875,274.004L525.987,273.448L525.987,271.405L525.651,271.573C525.408,271.694 525.114,271.596 524.992,271.354C524.871,271.112 524.97,270.817 525.212,270.696L525.987,270.308L525.987,265.126Z" style="fill:rgb(255,255,255);"/>
            </g>
        </g>
    </g>
</svg>
